<svg xmlns="http://www.w3.org/2000/svg" width="1200" height="630" viewBox="0 0 1200 630" fill="none">
  <rect width="1200" height="630" fill="#06090f"/>
  <rect width="1200" height="630" fill="url(#g)"/>
  <defs>
    <radialGradient id="g" cx="0" cy="0" r="1" gradientUnits="userSpaceOnUse" gradientTransform="translate(600 80) rotate(90) scale(520 720)">
      <stop stop-color="#22d3a6" stop-opacity="0.22"/>
      <stop offset="1" stop-color="#06090f" stop-opacity="0"/>
    </radialGradient>
  </defs>
  <g opacity="0.35">
    <path d="M0 90H1200" stroke="#38bdf8" stroke-opacity="0.15"/>
    <path d="M0 180H1200" stroke="#38bdf8" stroke-opacity="0.12"/>
    <path d="M0 270H1200" stroke="#38bdf8" stroke-opacity="0.1"/>
    <path d="M0 360H1200" stroke="#38bdf8" stroke-opacity="0.08"/>
    <path d="M0 450H1200" stroke="#38bdf8" stroke-opacity="0.06"/>
    <path d="M160 0V630" stroke="#38bdf8" stroke-opacity="0.08"/>
    <path d="M320 0V630" stroke="#38bdf8" stroke-opacity="0.08"/>
    <path d="M480 0V630" stroke="#38bdf8" stroke-opacity="0.08"/>
    <path d="M640 0V630" stroke="#38bdf8" stroke-opacity="0.08"/>
    <path d="M800 0V630" stroke="#38bdf8" stroke-opacity="0.08"/>
    <path d="M960 0V630" stroke="#38bdf8" stroke-opacity="0.08"/>
  </g>
  <rect x="96" y="210" width="64" height="64" stroke="#22d3a6" stroke-opacity="0.7" stroke-width="2"/>
  <rect x="108" y="222" width="40" height="40" stroke="#38bdf8" stroke-opacity="0.45"/>
  <rect x="120" y="234" width="16" height="16" fill="#22d3a6" transform="rotate(45 128 242)"/>
  <text x="184" y="256" fill="#e8eef8" font-family="Arial, Helvetica, sans-serif" font-size="44" font-weight="700">BP Capital</text>
  <text x="96" y="360" fill="#e8eef8" font-family="Arial, Helvetica, sans-serif" font-size="64" font-weight="700">Proprietary Securities Trading</text>
  <text x="96" y="420" fill="#94a3b8" font-family="Arial, Helvetica, sans-serif" font-size="28">Texas single-member LLC · Own account only</text>
  <text x="96" y="540" fill="#64748b" font-family="Arial, Helvetica, sans-serif" font-size="22">bpcapitalllc.com</text>
</svg>
